<svg xmlns="http://www.w3.org/2000/svg" xmlns:xlink="http://www.w3.org/1999/xlink" data-name="Layer 1" viewBox="0 0 512 512" id="mobile-dollar"><defs><linearGradient id="a" x1="303.1" x2="303.1" y1="495.289" y2="13.659" gradientTransform="matrix(1 0 0 -1 0 514)" gradientUnits="userSpaceOnUse"><stop offset="0" stop-color="#00efd1"></stop><stop offset="1" stop-color="#00acea"></stop></linearGradient><linearGradient id="b" x1="255.975" x2="255.975" y1="495.289" y2="13.659" xlink:href="#a"></linearGradient><linearGradient id="c" x1="211.1" x2="211.1" y1="495.289" y2="13.659" xlink:href="#a"></linearGradient></defs><path fill="url(#a)" d="M303.1,206.6a16.73,16.73,0,0,1,16.7,16.7,10,10,0,0,0,20,0A36.745,36.745,0,0,0,313.1,188v-6a10,10,0,0,0-20,0v6a36.694,36.694,0,0,0,10,72,16.7,16.7,0,1,1-16.7,16.7,10,10,0,1,0-20,0A36.745,36.745,0,0,0,293.1,312v8.1a10,10,0,0,0,20,0V312a36.694,36.694,0,0,0-10-72,16.7,16.7,0,0,1,0-33.4Z"></path><path fill="url(#b)" d="M418.6,220l1.7-30.5a9.971,9.971,0,0,0-5.5-9.5l-27.1-13.7L374,139.2a10.139,10.139,0,0,0-9.5-5.5l-17.3,1V73.3a50.018,50.018,0,0,0-50-50H124.9a50.018,50.018,0,0,0-50,50V438.7a50.018,50.018,0,0,0,50,50H297.2a50.018,50.018,0,0,0,50-50V367.3l17.3,1a9.971,9.971,0,0,0,9.5-5.5l13.7-27.1L414.8,322a10.139,10.139,0,0,0,5.5-9.5L418.6,282l16.8-25.5a9.992,9.992,0,0,0,0-11Zm-231.1,0-16.8,25.5a9.992,9.992,0,0,0,0,11L187.5,282l-1.7,30.5a9.971,9.971,0,0,0,5.5,9.5l27.1,13.7,13.7,27.1a10.139,10.139,0,0,0,9.5,5.5l30.5-1.7,25.5,16.8a12,12,0,0,0,3.7,1.5H94.9V113.2H327.2v17.7l-18.6-12.3a9.992,9.992,0,0,0-11,0l-25.5,16.8-30.5-1.7a9.971,9.971,0,0,0-9.5,5.5l-13.7,27.1L191.3,180a10.139,10.139,0,0,0-5.5,9.5ZM124.9,43.3H297.2a30.088,30.088,0,0,1,30,30V93.2H94.9V73.3A30.088,30.088,0,0,1,124.9,43.3ZM297.2,468.7H124.9a30.088,30.088,0,0,1-30-30V404.8H327.2v33.9A30.024,30.024,0,0,1,297.2,468.7Zm7.7-83.9a9.057,9.057,0,0,0,3.7-1.5L327.2,371v13.8Zm95.2-111.1a9.38,9.38,0,0,0-1.6,6.1L400,307l-24.2,12.2a9.858,9.858,0,0,0-4.4,4.4l-12.2,24.2-18.6-1a8.808,8.808,0,0,0-3.3-.6,7.8,7.8,0,0,0-2.2.3l-3.2-.2a10.738,10.738,0,0,0-6.1,1.6l-22.7,15-22.7-15a9.907,9.907,0,0,0-5.5-1.7h-.5l-27.3,1.5-12.2-24.2a9.858,9.858,0,0,0-4.4-4.4L206.2,307l1.5-27.3a10.95,10.95,0,0,0-1.6-6.1l-15-22.7,15-22.7a9.38,9.38,0,0,0,1.6-6.1l-1.5-27.3,24.2-12.2a9.858,9.858,0,0,0,4.4-4.4L247,154l27.3,1.5a10.95,10.95,0,0,0,6.1-1.6l22.7-15,22.7,15a9.38,9.38,0,0,0,6.1,1.6l27.3-1.5,12.2,24.2a9.858,9.858,0,0,0,4.4,4.4L400,195l-1.5,27.3a10.95,10.95,0,0,0,1.6,6.1l15,22.7Z"></path><path fill="url(#c)" d="M180.8 75.9h60.6a10 10 0 0 0 0-20H180.8a10 10 0 1 0 0 20zM211.1 408.1a28.6 28.6 0 1 0 28.6 28.6A28.594 28.594 0 0 0 211.1 408.1zm0 37.3a8.6 8.6 0 1 1 8.6-8.6A8.6 8.6 0 0 1 211.1 445.4z"></path></svg>